<?xml version="1.0" encoding="utf-8"?>
<!-- Generator: Adobe Illustrator 16.0.0, SVG Export Plug-In . SVG Version: 6.00 Build 0)  -->
<!DOCTYPE svg PUBLIC "-//W3C//DTD SVG 1.1//EN" "http://www.w3.org/Graphics/SVG/1.1/DTD/svg11.dtd">
<svg version="1.1" id="Layer_1" xmlns="http://www.w3.org/2000/svg" xmlns:xlink="http://www.w3.org/1999/xlink" x="0px" y="0px"
	 width="1000px" height="474.783px" viewBox="0 0 1000 474.783" enable-background="new 0 0 1000 474.783" xml:space="preserve">
<g>
	<path fill="#3F7898" d="M220.579,228.424C378.175,45.049,481.125,21.868,497.199,21.868l77.198,89.446
		c0,0,19.326-21.87,28.949-21.87c0,0,75.915,72.004,110.685,129.303C679.891,154.396,600.775,70.145,591.155,70.145
		c-9.704,0-30.235,16.074-30.235,16.074S495.914,0,479.84,0C463.711,0,355.677,46.361,220.579,228.424"/>
	<path d="M17.223,391.022c-2.27-0.983-2.734-1.693-2.734-4.921c0-8.091,0.574-16.839,0.738-19.188
		c0.109-2.242,0.547-3.884,1.668-3.884c1.284,0,1.476,1.367,1.476,2.515c0,1.915,0.547,4.978,1.34,7.491
		c3.171,10.825,11.864,14.871,20.994,14.871c13.204,0,19.655-8.967,19.655-16.785c0-7.162-2.186-14.05-14.352-23.399l-6.725-5.305
		c-16.101-12.574-21.65-22.854-21.65-34.715c0-16.129,13.423-27.721,33.761-27.721c9.513,0,15.664,1.531,19.546,2.46
		c1.284,0.327,1.995,0.765,1.995,1.75c0,1.969-0.546,6.233-0.546,17.715c0,3.225-0.465,4.372-1.696,4.372
		c-0.983,0-1.448-0.875-1.448-2.622c0-1.369-0.738-5.906-3.8-9.68c-2.188-2.787-6.452-7.216-15.91-7.216
		c-10.853,0-17.468,6.344-17.468,15.146c0,6.725,3.417,11.808,15.582,21.05l4.073,3.06c17.578,13.669,24.03,23.456,24.03,37.343
		c0,8.529-3.253,18.644-13.778,25.533c-7.327,4.646-15.501,5.958-23.4,5.958C30.07,394.85,23.455,393.813,17.223,391.022"/>
	<path d="M160.22,324.484c0-22.306,0-26.405-0.274-31.107c-0.273-4.975-1.449-7.327-6.341-8.311
		c-1.176-0.329-3.637-0.493-5.687-0.493c-1.585,0-2.487-0.273-2.487-1.311c0-1.04,1.011-1.313,3.253-1.313
		c7.736,0,16.976,0.438,21.405,0.438c3.526,0,12.738-0.438,18.069-0.438c2.187,0,3.198,0.272,3.198,1.313
		c0,1.037-0.902,1.311-2.351,1.311c-1.64,0-2.46,0.164-4.265,0.493c-3.963,0.711-5.138,3.226-5.412,8.311
		c-0.301,4.702-0.301,8.802-0.301,31.107v20.558c0,21.269,4.264,30.235,11.427,36.139c6.615,5.358,13.368,5.961,18.426,5.961
		c6.424,0,14.378-2.077,20.255-7.93c8.064-8.034,8.529-21.266,8.529-36.357v-18.37c0-22.306,0-26.405-0.3-31.107
		c-0.274-4.975-1.449-7.327-6.315-8.311c-1.175-0.329-3.69-0.493-5.276-0.493c-1.612,0-2.515-0.273-2.515-1.311
		c0-1.04,1.066-1.313,3.088-1.313c7.491,0,16.731,0.438,16.895,0.438c1.75,0,10.989-0.438,16.703-0.438
		c2.05,0,3.116,0.272,3.116,1.313c0,1.037-0.902,1.311-2.679,1.311c-1.614,0-2.461,0.164-4.265,0.493
		c-3.909,0.711-5.084,3.226-5.358,8.311c-0.355,4.702-0.355,8.802-0.355,31.107v15.691c0,16.294-1.559,33.681-13.941,44.176
		c-10.388,8.913-20.996,10.498-30.563,10.498c-7.763,0-21.869-0.491-32.64-10.061c-7.436-6.778-13.04-17.549-13.04-38.872V324.484"
		/>
	<path d="M350.784,282.66c0.464-2.568,1.313-3.881,2.487-3.881c1.176,0,2.05,0.765,3.965,4.592l40.02,82.667l39.939-83.761
		c0.984-2.296,1.886-3.498,3.172-3.498c1.339,0,2.241,1.475,2.706,4.592l13.313,90.647c1.339,9.239,2.787,13.45,7.216,14.763
		c4.21,1.366,7.162,1.531,9.076,1.531c1.34,0,2.351,0.108,2.351,0.983c0,1.204-1.777,1.642-3.8,1.642
		c-3.691,0-23.919-0.438-29.797-0.932c-3.362-0.272-4.237-0.71-4.237-1.585c0-0.765,0.547-1.202,1.558-1.64
		c0.902-0.273,1.339-2.188,0.792-6.287l-8.802-64.516h-0.629l-31.957,66.538c-3.362,6.943-4.126,8.256-5.439,8.256
		c-1.286,0-2.789-2.952-5.14-7.327c-3.526-6.725-15.062-29.194-16.839-33.349c-1.366-3.009-10.143-21.544-15.227-32.533h-0.628
		l-7.6,58.393c-0.301,2.68-0.464,4.538-0.464,6.833c0,2.844,1.914,4.156,4.428,4.759c2.625,0.6,4.702,0.765,6.151,0.765
		c1.175,0,2.186,0.272,2.186,0.983c0,1.313-1.338,1.642-3.526,1.642c-6.151,0-12.767-0.494-15.39-0.494
		c-2.816,0-9.869,0.494-14.571,0.494c-1.449,0-2.625-0.329-2.625-1.642c0-0.711,0.903-0.983,2.351-0.983
		c1.176,0,2.188,0,4.429-0.492c4.073-0.875,5.303-6.563,5.986-11.591L350.784,282.66"/>
	<path d="M559.8,282.66c0.438-2.568,1.339-3.881,2.515-3.881c1.121,0,2.022,0.765,3.965,4.592l40.047,82.667l39.857-83.761
		c1.066-2.296,1.887-3.498,3.254-3.498c1.283,0,2.158,1.475,2.623,4.592l13.314,90.647c1.337,9.239,2.814,13.45,7.216,14.763
		c4.265,1.366,7.189,1.531,9.075,1.531c1.34,0,2.35,0.108,2.35,0.983c0,1.204-1.721,1.642-3.801,1.642
		c-3.633,0-23.918-0.438-29.794-0.932c-3.362-0.272-4.237-0.71-4.237-1.585c0-0.765,0.6-1.202,1.611-1.64
		c0.902-0.273,1.34-2.188,0.738-6.287l-8.802-64.516h-0.603l-31.982,66.538c-3.362,6.943-4.072,8.256-5.412,8.256
		c-1.285,0-2.763-2.952-5.112-7.327c-3.524-6.725-15.116-29.194-16.896-33.349c-1.283-3.009-10.088-21.544-15.225-32.533h-0.629
		l-7.601,58.393c-0.3,2.68-0.464,4.538-0.464,6.833c0,2.844,1.914,4.156,4.429,4.759c2.622,0.6,4.702,0.765,6.149,0.765
		c1.178,0,2.188,0.272,2.188,0.983c0,1.313-1.34,1.642-3.527,1.642c-6.149,0-12.766-0.494-15.334-0.494
		c-2.844,0-9.896,0.494-14.544,0.494c-1.476,0-2.651-0.329-2.651-1.642c0-0.711,0.848-0.983,2.351-0.983
		c1.176,0,2.188,0,4.374-0.492c4.101-0.875,5.331-6.563,6.041-11.591L559.8,282.66"/>
	<path d="M763.457,324.376c0-22.251,0-26.354-0.326-31.109c-0.275-4.975-1.726-7.436-4.978-8.146
		c-1.64-0.492-3.526-0.603-5.276-0.548c-1.502,0-2.351-0.273-2.351-1.421c0-0.93,1.121-1.202,3.527-1.202
		c5.548,0,14.789,0.438,18.973,0.438c3.662,0,12.329-0.438,17.876-0.438c1.915,0,3.063,0.272,3.063,1.202
		c0,1.147-0.875,1.421-2.352,1.421c-1.447,0-2.625,0.164-4.346,0.493c-3.992,0.711-5.166,3.226-5.496,8.364
		c-0.271,4.702-0.271,8.803-0.271,31.11V350.4c0,14.271,0,25.917,0.601,32.147c0.464,3.991,1.475,6.616,5.822,7.217
		c2.076,0.329,5.331,0.602,7.519,0.548c1.612,0,2.35,0.383,2.35,1.147c0,1.04-1.175,1.478-2.816,1.478
		c-9.62,0-18.862-0.494-22.771-0.494c-3.362,0-12.604,0.494-18.479,0.494c-1.914,0-2.9-0.438-2.9-1.478
		c0-0.765,0.549-1.147,2.353-1.147c2.16,0,3.965-0.384,5.247-0.548c2.979-0.601,3.801-3.061,4.268-7.325
		c0.764-6.122,0.764-17.714,0.764-32.039V324.376"/>
	<path d="M905.279,290.096l-21.841,0.603c-8.556,0.272-12.083,0.982-14.271,4.265c-1.448,2.188-2.186,3.935-2.515,5.139
		c-0.219,1.094-0.684,1.75-1.505,1.75c-1.066,0-1.366-0.767-1.366-2.352c0-2.35,2.763-15.638,3.033-16.675
		c0.438-1.915,0.904-2.844,1.779-2.844c1.202,0,2.649,1.531,6.288,1.696c4.262,0.438,9.841,0.764,14.705,0.764h58.063
		c9.35,0,12.874-1.477,14.05-1.477c1.066,0,1.177,0.875,1.177,3.063c0,3.006-0.381,13.123-0.381,16.893
		c-0.167,1.532-0.438,2.407-1.342,2.407c-1.229,0-1.528-0.711-1.64-2.952l-0.164-1.586c-0.273-3.826-4.238-7.983-17.305-8.256
		l-18.396-0.438V350.4c0,13.504,0,25.149,0.71,31.437c0.467,4.157,1.339,7.327,5.712,7.928c2.025,0.329,5.277,0.602,7.519,0.548
		c1.559,0,2.298,0.383,2.298,1.147c0,1.04-1.177,1.478-2.762,1.478c-9.678,0-18.916-0.494-23.07-0.494
		c-3.338,0-12.577,0.494-18.4,0.494c-1.966,0-2.979-0.438-2.979-1.478c0-0.765,0.575-1.147,2.35-1.147
		c2.188,0,3.965-0.384,5.277-0.548c2.951-0.601,3.8-3.771,4.237-8.035c0.737-6.18,0.737-17.771,0.737-31.383V290.096"/>
	<path d="M7.381,448.703c0-7.052,0-8.364-0.109-9.842c-0.109-1.529-0.438-2.35-1.969-2.68c-0.382-0.054-1.23-0.054-1.831-0.054
		c-0.52,0-0.792-0.165-0.792-0.438c0-0.381,0.328-0.438,1.065-0.438c2.46,0,5.331,0.11,6.671,0.11c1.449,0,10.634,0,11.59-0.054
		c0.821-0.057,1.558-0.11,1.941-0.275c0.219,0,0.519-0.162,0.737-0.162s0.274,0.162,0.274,0.381c0,0.329-0.219,0.875-0.328,3.009
		c-0.056,0.491-0.165,2.515-0.219,3.116c-0.056,0.162-0.192,0.492-0.52,0.492s-0.438-0.219-0.438-0.711c0-0.329,0-1.094-0.273-1.642
		c-0.301-0.875-0.792-1.421-3.089-1.64c-0.793-0.11-5.658-0.219-6.56-0.219c-0.219,0-0.328,0.165-0.328,0.438v11.754
		c0,0.329,0.054,0.548,0.328,0.548c1.011,0,6.341,0,7.408-0.11c1.065-0.108,1.777-0.219,2.186-0.656
		c0.328-0.381,0.547-0.6,0.711-0.6c0.219,0,0.328,0.108,0.328,0.327c0,0.272-0.219,1.039-0.383,3.335
		c-0.054,0.983-0.109,2.844-0.109,3.171c0,0.383,0,0.821-0.438,0.821c-0.355,0-0.409-0.165-0.409-0.384
		c-0.055-0.438-0.055-1.094-0.219-1.693c-0.219-0.875-0.848-1.586-2.57-1.805c-0.902-0.11-5.44-0.11-6.562-0.11
		c-0.219,0-0.272,0.165-0.272,0.491v3.608c0,1.586-0.056,5.906,0,7.273c0.109,3.225,0.847,3.881,5.548,3.881
		c1.23,0,3.117,0,4.32-0.546c1.23-0.602,1.777-1.531,2.105-3.446c0.109-0.491,0.19-0.71,0.519-0.764c0.383,0,0.383,0.383,0.383,0.82
		c0,1.092-0.383,4.265-0.602,5.138c-0.355,1.204-0.793,1.204-2.542,1.204c-6.917,0-10.06-0.272-12.822-0.272
		c-1.039,0-3.909,0.162-5.823,0.162c-0.547,0-0.874-0.162-0.874-0.438c0-0.219,0.163-0.381,0.655-0.381
		c0.739,0,1.286-0.111,1.75-0.219c0.902-0.219,1.121-1.205,1.339-2.571c0.219-1.912,0.219-5.521,0.219-9.842V448.703"/>
	<path d="M82.119,463.902c0.109,3.662,0.683,4.811,1.641,5.14c0.766,0.327,1.667,0.384,2.405,0.384c0.493,0,0.766,0.107,0.821,0.381
		c0,0.329-0.438,0.438-1.121,0.438c-3.007,0-4.867-0.108-5.713-0.108c-0.438,0-2.625,0.108-5.03,0.108
		c-0.601,0-1.011-0.055-1.011-0.438c0-0.273,0.301-0.381,0.792-0.381c0.547,0,1.394-0.057,2.023-0.275
		c1.23-0.381,1.394-1.693,1.449-5.686l0.438-27.445c0-0.875,0.109-1.531,0.628-1.531c0.493,0,0.902,0.546,1.668,1.421
		c0.574,0.603,7.627,8.148,14.352,14.873c3.172,3.114,9.404,9.785,10.17,10.495h0.219l-0.438-20.72
		c-0.054-2.844-0.438-3.663-1.559-4.211c-0.737-0.219-1.804-0.219-2.46-0.219c-0.574,0-0.738-0.165-0.738-0.438
		c0-0.381,0.492-0.438,1.175-0.438c2.406,0,4.647,0.11,5.604,0.11c0.492,0,2.242-0.11,4.593-0.11c0.547,0,1.012,0.057,1.012,0.438
		c0,0.272-0.301,0.438-0.848,0.438c-0.436,0-0.792,0-1.338,0.054c-1.339,0.438-1.696,1.369-1.75,3.992l-0.492,29.195
		c0,0.985-0.165,1.423-0.629,1.423c-0.492,0-1.067-0.491-1.559-0.985c-2.925-2.787-8.857-8.856-13.668-13.612
		c-4.975-4.978-10.169-10.827-11.016-11.702h-0.109L82.119,463.902"/>
	<path d="M172.44,437.824l-6.89,0.162c-2.706,0.11-3.827,0.329-4.483,1.369c-0.464,0.653-0.737,1.202-0.792,1.585
		c-0.109,0.438-0.273,0.6-0.492,0.6c-0.355,0-0.464-0.219-0.464-0.764c0-0.768,0.902-4.921,1.011-5.305
		c0.109-0.6,0.273-0.875,0.519-0.875c0.383,0,0.821,0.438,1.996,0.603c1.339,0.054,3.089,0.164,4.648,0.164h18.369
		c2.98,0,4.046-0.438,4.429-0.438c0.328,0,0.328,0.273,0.328,0.983c0,0.985-0.109,4.1-0.109,5.305
		c-0.055,0.545-0.109,0.764-0.383,0.764c-0.355,0-0.465-0.219-0.519-0.929l-0.056-0.491c-0.054-1.202-1.339-2.515-5.466-2.625
		l-5.905-0.108v18.97c0,4.321,0,7.93,0.301,9.896c0.109,1.369,0.382,2.299,1.776,2.518c0.685,0.107,1.696,0.219,2.351,0.219
		c0.52,0,0.738,0.162,0.738,0.381c0,0.275-0.328,0.438-0.848,0.438c-3.062,0-5.986-0.108-7.271-0.108
		c-1.067,0-3.965,0.108-5.823,0.108c-0.629,0-0.957-0.162-0.957-0.438c0-0.219,0.165-0.381,0.738-0.381
		c0.656,0,1.285-0.111,1.668-0.219c0.902-0.219,1.23-1.148,1.34-2.571c0.246-1.912,0.246-5.577,0.246-9.842V437.824"/>
	<path d="M242.066,448.703c0-7.052,0-8.364-0.109-9.842c-0.109-1.529-0.438-2.35-1.942-2.68c-0.409-0.054-1.202-0.054-1.858-0.054
		c-0.493,0-0.739-0.165-0.739-0.438c0-0.381,0.301-0.438,0.958-0.438c2.46,0,5.385,0.11,6.725,0.11c1.449,0,10.688,0,11.535-0.054
		c0.903-0.057,1.613-0.11,2.024-0.275c0.218,0,0.492-0.162,0.71-0.162s0.273,0.162,0.273,0.381c0,0.329-0.219,0.875-0.382,3.009
		c0,0.491-0.109,2.515-0.165,3.116c-0.109,0.162-0.164,0.492-0.519,0.492c-0.328,0-0.383-0.219-0.383-0.711
		c0-0.329-0.054-1.094-0.273-1.642c-0.328-0.875-0.792-1.421-3.144-1.64c-0.766-0.11-5.659-0.219-6.533-0.219
		c-0.247,0-0.356,0.165-0.356,0.438v11.754c0,0.329,0.056,0.548,0.356,0.548c0.983,0,6.314,0,7.38-0.11
		c1.067-0.108,1.777-0.219,2.188-0.656c0.382-0.381,0.492-0.6,0.766-0.6c0.191,0,0.355,0.108,0.355,0.327
		c0,0.272-0.273,1.039-0.411,3.335c-0.109,0.983-0.219,2.844-0.219,3.171c0,0.383,0,0.821-0.382,0.821
		c-0.274,0-0.382-0.165-0.382-0.384c-0.083-0.438-0.083-1.094-0.247-1.693c-0.219-0.875-0.874-1.586-2.57-1.805
		c-0.902-0.11-5.412-0.11-6.56-0.11c-0.219,0-0.274,0.165-0.274,0.491v3.608c0,1.586-0.054,5.906,0,7.273
		c0.109,3.225,0.848,3.881,5.55,3.881c1.175,0,3.144,0,4.374-0.546c1.175-0.602,1.722-1.531,2.077-3.446
		c0.056-0.491,0.165-0.71,0.493-0.764c0.382,0,0.382,0.383,0.382,0.82c0,1.092-0.382,4.265-0.601,5.138
		c-0.355,1.204-0.739,1.204-2.516,1.204c-6.998,0-10.086-0.272-12.765-0.272c-1.121,0-4.046,0.162-5.878,0.162
		c-0.628,0-0.902-0.162-0.902-0.438c0-0.219,0.165-0.381,0.712-0.381c0.683,0,1.257-0.111,1.694-0.219
		c0.902-0.219,1.175-1.205,1.34-2.571c0.219-1.912,0.219-5.521,0.219-9.842V448.703"/>
	<path d="M314.234,456.851c0,4.208,0,7.873-0.272,9.785c-0.165,1.423-0.328,2.353-1.286,2.571c-0.465,0.107-0.957,0.219-1.695,0.219
		c-0.547,0-0.71,0.162-0.71,0.381c0,0.275,0.328,0.438,0.875,0.438c1.858,0,4.783-0.108,5.658-0.108
		c0.739,0,4.155,0.108,6.834,0.108c0.629,0,0.956-0.162,0.956-0.438c0-0.219-0.218-0.381-0.546-0.381
		c-0.629,0-1.641-0.111-2.297-0.219c-1.422-0.219-1.695-1.148-1.804-2.518c-0.273-1.912-0.273-5.574-0.273-9.896v-0.656
		c0-0.219,0.164-0.327,0.382-0.327l4.046,0.108c0.328,0,0.601,0.057,0.82,0.275c0.629,0.711,2.761,3.881,4.592,6.396
		c2.57,3.5,4.374,5.688,6.397,6.779c1.176,0.656,2.351,0.875,4.921,0.875h4.429c0.492,0,0.82-0.108,0.82-0.438
		c0-0.219-0.164-0.381-0.492-0.381c-0.383,0-0.848-0.057-1.285-0.111c-0.737-0.219-2.624-0.545-5.221-3.225
		c-2.734-2.844-5.932-6.943-10.061-12.137c4.702-3.827,6.096-6.944,6.096-10.333c0-3.117-1.831-5.523-3.144-6.344
		c-2.46-1.748-5.576-2.023-8.556-2.023c-1.394,0-4.921,0.11-6.479,0.11c-1.011,0-3.936-0.11-6.341-0.11
		c-0.739,0-1.067,0.11-1.067,0.438c0,0.272,0.274,0.438,0.793,0.438c0.656,0,1.449,0,1.832,0.054c1.53,0.33,1.858,1.095,1.968,2.68
		c0.109,1.478,0.109,2.79,0.109,9.842V456.851 M319.675,438.262c0-0.384,0.109-0.548,0.437-0.656c0.52-0.11,1.286-0.165,2.46-0.165
		c2.761,0,7.053,1.915,7.053,8.475c0,3.827-1.339,5.904-2.679,6.944c-0.847,0.656-1.447,0.818-3.307,0.818
		c-1.176,0-2.515-0.162-3.527-0.492c-0.327-0.107-0.437-0.326-0.437-0.875V438.262z"/>
	<path d="M396.491,437.824l-6.89,0.162c-2.679,0.11-3.827,0.329-4.483,1.369c-0.491,0.653-0.737,1.202-0.792,1.585
		c-0.109,0.438-0.273,0.6-0.492,0.6c-0.328,0-0.464-0.219-0.464-0.764c0-0.768,0.902-4.921,0.956-5.305
		c0.165-0.6,0.301-0.875,0.574-0.875c0.384,0,0.82,0.438,2.023,0.603c1.339,0.054,3.063,0.164,4.62,0.164h18.316
		c3.034,0,4.1-0.438,4.483-0.438c0.272,0,0.328,0.273,0.328,0.983c0,0.985-0.109,4.1-0.109,5.305
		c-0.056,0.545-0.165,0.764-0.384,0.764c-0.409,0-0.519-0.219-0.519-0.929l-0.055-0.491c-0.109-1.202-1.339-2.515-5.468-2.625
		l-5.876-0.108v18.97c0,4.321,0,7.93,0.219,9.896c0.163,1.369,0.438,2.299,1.831,2.518c0.629,0.107,1.694,0.219,2.351,0.219
		c0.52,0,0.793,0.162,0.793,0.381c0,0.275-0.438,0.438-0.956,0.438c-3.007,0-5.932-0.108-7.218-0.108
		c-1.065,0-3.963,0.108-5.877,0.108c-0.547,0-0.902-0.162-0.902-0.438c0-0.219,0.164-0.381,0.739-0.381
		c0.737,0,1.284-0.111,1.666-0.219c0.902-0.219,1.176-1.148,1.368-2.571c0.219-1.912,0.219-5.577,0.219-9.842V437.824"/>
	<path d="M475.521,458.218c0.246,0,0.355,0.054,0.464,0.272l3.69,9.787c0.219,0.546-0.054,1.037-0.382,1.092
		c-0.464,0.057-0.683,0.164-0.683,0.438c0,0.275,0.574,0.275,1.394,0.329c3.691,0.108,7.108,0.108,8.748,0.108
		c1.723,0,2.132-0.108,2.132-0.438c0-0.327-0.19-0.381-0.628-0.381c-0.493,0-1.23-0.057-1.914-0.219
		c-0.984-0.219-2.297-0.875-4.074-5.032c-2.979-7.051-10.36-25.913-11.481-28.484c-0.438-0.983-0.738-1.475-1.176-1.475
		s-0.71,0.546-1.285,1.912l-11.646,29.033c-0.902,2.296-1.777,3.827-3.909,4.153c-0.409,0.055-1.012,0.111-1.476,0.111
		c-0.328,0-0.492,0.107-0.492,0.381c0,0.329,0.273,0.438,0.847,0.438c2.407,0,4.976-0.108,5.468-0.108
		c1.476,0,3.417,0.108,4.948,0.108c0.492,0,0.766-0.108,0.766-0.438c0-0.273-0.165-0.381-0.656-0.381h-0.737
		c-1.449,0-1.833-0.656-1.833-1.478c0-0.491,0.219-1.64,0.656-2.787l2.515-6.617c0.109-0.272,0.165-0.326,0.411-0.326H475.521
		 M466.116,455.919c-0.219,0-0.219-0.162-0.219-0.327l4.265-11.427c0.055-0.164,0.165-0.383,0.328-0.383
		c0.109,0,0.165,0.219,0.219,0.383l4.155,11.427c0.055,0.165,0,0.327-0.219,0.327H466.116z"/>
	<path d="M538.696,448.703c0-7.052,0-8.364-0.109-9.842c-0.138-1.585-0.575-2.35-1.587-2.623c-0.545-0.11-1.121-0.11-1.666-0.11
		c-0.466,0-0.738-0.165-0.738-0.491c0-0.273,0.328-0.384,1.12-0.384c1.75,0,4.646,0.11,5.986,0.11c1.177,0,3.884-0.11,5.658-0.11
		c0.575,0,0.958,0.11,0.958,0.384c0,0.326-0.275,0.491-0.736,0.491c-0.494,0-0.852,0-1.396,0.054
		c-1.229,0.275-1.612,1.095-1.721,2.68c-0.138,1.478-0.138,2.79-0.138,9.842v8.091c0,4.483,0,8.202,0.246,10.114
		c0.162,1.313,0.438,2.08,1.831,2.299c0.684,0.107,1.693,0.219,2.352,0.219c0.573,0,0.792,0.162,0.792,0.381
		c0,0.275-0.384,0.438-0.902,0.438c-3.06,0-5.985-0.108-7.216-0.108c-1.067,0-3.964,0.108-5.823,0.108
		c-0.629,0-0.957-0.162-0.957-0.438c0-0.219,0.219-0.381,0.738-0.381c0.71,0,1.286-0.111,1.668-0.219
		c0.956-0.219,1.229-0.93,1.339-2.299c0.302-1.912,0.302-5.631,0.302-10.114V448.703"/>
	<path d="M605.067,463.902c0.083,3.662,0.686,4.811,1.642,5.14c0.791,0.327,1.612,0.384,2.35,0.384c0.549,0,0.851,0.107,0.851,0.381
		c0,0.329-0.413,0.438-1.066,0.438c-3.036,0-4.867-0.108-5.769-0.108c-0.411,0-2.568,0.108-5.002,0.108
		c-0.603,0-0.986-0.055-0.986-0.438c0-0.273,0.273-0.381,0.711-0.381c0.629,0,1.477-0.057,2.133-0.275
		c1.176-0.381,1.34-1.693,1.395-5.686l0.464-27.445c0-0.875,0.108-1.531,0.546-1.531c0.521,0,0.959,0.546,1.75,1.421
		c0.548,0.603,7.6,8.148,14.324,14.873c3.145,3.114,9.404,9.785,10.195,10.495h0.222l-0.467-20.72
		c-0.108-2.844-0.438-3.663-1.559-4.211c-0.653-0.219-1.828-0.219-2.458-0.219c-0.629,0-0.737-0.165-0.737-0.438
		c0-0.381,0.517-0.438,1.175-0.438c2.434,0,4.646,0.11,5.604,0.11c0.519,0,2.296-0.11,4.537-0.11c0.63,0,1.067,0.057,1.067,0.438
		c0,0.272-0.275,0.438-0.795,0.438c-0.491,0-0.875,0-1.447,0.054c-1.285,0.438-1.669,1.369-1.669,3.992l-0.573,29.195
		c0,0.985-0.164,1.423-0.547,1.423c-0.52,0-1.064-0.491-1.586-0.985c-2.898-2.787-8.829-8.856-13.642-13.612
		c-5.058-4.978-10.195-10.827-10.989-11.702h-0.164L605.067,463.902"/>
	<path d="M690.907,435.418c0.108-0.765,0.381-1.202,0.792-1.202c0.329,0,0.6,0.219,1.229,1.421l12.658,26.135l12.602-26.462
		c0.327-0.713,0.603-1.094,0.986-1.094c0.462,0,0.736,0.438,0.846,1.421l4.264,28.593c0.384,2.954,0.821,4.265,2.242,4.702
		c1.34,0.438,2.298,0.494,2.897,0.494c0.411,0,0.737,0.054,0.737,0.272c0,0.384-0.629,0.546-1.229,0.546
		c-1.121,0-7.517-0.162-9.404-0.273c-1.066-0.107-1.34-0.272-1.34-0.491c0-0.272,0.165-0.438,0.492-0.548
		c0.272-0.108,0.438-0.654,0.272-2.023l-2.787-20.337h-0.219l-10.087,21.05c-1.064,2.186-1.286,2.568-1.748,2.568
		c-0.383,0-0.875-0.875-1.559-2.295c-1.178-2.134-4.813-9.239-5.357-10.552c-0.414-0.93-3.201-6.836-4.84-10.279h-0.165
		l-2.403,18.479c-0.111,0.767-0.111,1.366-0.111,2.134c0,0.875,0.572,1.313,1.34,1.475c0.902,0.219,1.529,0.275,1.967,0.275
		c0.383,0,0.658,0.107,0.658,0.272c0,0.438-0.383,0.546-1.039,0.546c-1.97,0-4.047-0.108-4.895-0.108
		c-0.875,0-3.063,0.108-4.592,0.108c-0.438,0-0.82-0.108-0.82-0.546c0-0.165,0.272-0.272,0.711-0.272c0.41,0,0.739,0,1.422-0.111
		c1.338-0.326,1.667-2.131,1.886-3.716L690.907,435.418"/>
	<path d="M780.435,448.703c0-7.052,0-8.364-0.11-9.842c-0.111-1.529-0.465-2.35-1.969-2.68c-0.384-0.054-1.176-0.054-1.775-0.054
		c-0.574,0-0.85-0.165-0.85-0.438c0-0.381,0.329-0.438,1.066-0.438c2.463,0,5.358,0.11,6.644,0.11c1.478,0,10.714,0,11.535-0.054
		c0.904-0.057,1.696-0.11,2.025-0.275c0.216,0,0.517-0.162,0.791-0.162c0.163,0,0.219,0.162,0.219,0.381
		c0,0.329-0.165,0.875-0.327,3.009c-0.057,0.491-0.166,2.515-0.245,3.116c-0.057,0.162-0.167,0.492-0.494,0.492
		c-0.272,0-0.381-0.219-0.381-0.711c0-0.329-0.057-1.094-0.303-1.642c-0.327-0.875-0.765-1.421-3.116-1.64
		c-0.737-0.11-5.604-0.219-6.561-0.219c-0.219,0-0.329,0.165-0.329,0.438v11.754c0,0.329,0.057,0.548,0.329,0.548
		c1.013,0,6.342,0,7.381-0.11c1.121-0.108,1.805-0.219,2.242-0.656c0.356-0.381,0.465-0.6,0.737-0.6
		c0.165,0,0.272,0.108,0.272,0.327c0,0.272-0.216,1.039-0.326,3.335c-0.111,0.983-0.219,2.844-0.219,3.171
		c0,0.383,0,0.821-0.411,0.821c-0.327,0-0.381-0.165-0.381-0.384c-0.057-0.438-0.057-1.094-0.222-1.693
		c-0.162-0.875-0.845-1.586-2.568-1.805c-0.848-0.11-5.439-0.11-6.56-0.11c-0.219,0-0.275,0.165-0.275,0.491v3.608
		c0,1.586,0,5.906,0,7.273c0.11,3.225,0.851,3.881,5.55,3.881c1.229,0,3.117,0,4.346-0.546c1.178-0.602,1.75-1.531,2.079-3.446
		c0.108-0.491,0.163-0.71,0.519-0.764c0.384,0,0.384,0.383,0.384,0.82c0,1.092-0.384,4.265-0.63,5.138
		c-0.326,1.204-0.71,1.204-2.514,1.204c-6.943,0-10.061-0.272-12.767-0.272c-1.066,0-3.962,0.162-5.823,0.162
		c-0.602,0-0.955-0.162-0.955-0.438c0-0.219,0.191-0.381,0.736-0.381c0.738,0,1.286-0.111,1.696-0.219
		c0.929-0.219,1.146-1.205,1.337-2.571c0.222-1.912,0.222-5.521,0.222-9.842V448.703"/>
	<path d="M855.172,463.902c0.111,3.662,0.738,4.811,1.613,5.14c0.793,0.327,1.693,0.384,2.406,0.384
		c0.518,0,0.791,0.107,0.791,0.381c0,0.329-0.383,0.438-1.013,0.438c-3.003,0-4.864-0.108-5.767-0.108
		c-0.438,0-2.57,0.108-5.028,0.108c-0.575,0-0.959-0.055-0.959-0.438c0-0.273,0.222-0.381,0.684-0.381
		c0.603,0,1.45-0.057,2.104-0.275c1.203-0.381,1.422-1.693,1.479-5.686l0.381-27.445c0-0.875,0.165-1.531,0.63-1.531
		c0.491,0,0.872,0.546,1.724,1.421c0.518,0.603,7.57,8.148,14.324,14.873c3.141,3.114,9.348,9.785,10.141,10.495h0.273l-0.494-20.72
		c-0.054-2.844-0.462-3.663-1.559-4.211c-0.684-0.219-1.804-0.219-2.487-0.219c-0.546,0-0.708-0.165-0.708-0.438
		c0-0.381,0.492-0.438,1.229-0.438c2.35,0,4.591,0.11,5.55,0.11c0.546,0,2.296-0.11,4.592-0.11c0.545,0,0.982,0.057,0.982,0.438
		c0,0.272-0.27,0.438-0.818,0.438c-0.465,0-0.794,0-1.34,0.054c-1.313,0.438-1.695,1.369-1.695,3.992l-0.546,29.195
		c0,0.985-0.165,1.423-0.629,1.423c-0.491,0-1.067-0.491-1.559-0.985c-2.925-2.787-8.802-8.856-13.612-13.612
		c-5.085-4.978-10.254-10.827-11.016-11.702h-0.191L855.172,463.902"/>
	<path d="M945.464,437.824l-6.888,0.162c-2.679,0.11-3.745,0.329-4.455,1.369c-0.52,0.653-0.74,1.202-0.795,1.585
		c-0.107,0.438-0.219,0.6-0.491,0.6c-0.3,0-0.411-0.219-0.411-0.764c0-0.768,0.849-4.921,0.957-5.305
		c0.11-0.6,0.221-0.875,0.548-0.875c0.356,0,0.849,0.438,1.969,0.603c1.337,0.054,3.087,0.164,4.646,0.164h18.371
		c2.953,0,4.074-0.438,4.429-0.438c0.329,0,0.384,0.273,0.384,0.983c0,0.985-0.165,4.1-0.165,5.305
		c-0.054,0.545-0.11,0.764-0.381,0.764c-0.359,0-0.468-0.219-0.521-0.929l-0.054-0.491c-0.055-1.202-1.34-2.515-5.496-2.625
		l-5.82-0.108v18.97c0,4.321,0,7.93,0.246,9.896c0.107,1.369,0.381,2.299,1.774,2.518c0.683,0.107,1.667,0.219,2.353,0.219
		c0.518,0,0.793,0.162,0.793,0.381c0,0.275-0.412,0.438-0.904,0.438c-3.087,0-5.987-0.108-7.271-0.108
		c-1.066,0-3.991,0.108-5.823,0.108c-0.629,0-0.955-0.162-0.955-0.438c0-0.219,0.216-0.381,0.791-0.381
		c0.656,0,1.175-0.111,1.612-0.219c0.959-0.219,1.175-1.148,1.343-2.571c0.216-1.912,0.216-5.577,0.216-9.842V437.824"/>
	<rect y="412.237" width="964.955" height="3.881"/>
	<path d="M979.279,468.002h2.871v-6.396h2.242c1.559,0,2.57,0.219,3.17,0.546c1.014,0.603,1.531,1.86,1.531,3.719v1.313l0.055,0.492
		c0,0.107,0.057,0.164,0.057,0.164c0,0.108,0,0.162,0.054,0.162h2.625l-0.057-0.162c-0.11-0.164-0.11-0.383-0.165-0.82
		c-0.054-0.492-0.054-0.876-0.054-1.259v-1.148c0-0.818-0.272-1.639-0.901-2.568c-0.549-0.82-1.502-1.313-2.733-1.531
		c1.01-0.164,1.723-0.383,2.296-0.82c1.12-0.656,1.614-1.693,1.614-3.171c0-2.023-0.851-3.39-2.517-4.1
		c-0.956-0.384-2.404-0.603-4.375-0.603h-5.713V468.002 M987.4,459.255c-0.604,0.275-1.449,0.383-2.679,0.383h-2.571v-5.796h2.404
		c1.559,0,2.735,0.165,3.473,0.549c0.656,0.381,1.066,1.201,1.066,2.35C989.094,458.053,988.521,458.874,987.4,459.255z
		 M995.682,449.578c-2.898-2.844-6.369-4.319-10.469-4.319c-4.021,0-7.491,1.476-10.333,4.319
		c-2.925,2.897-4.321,6.341-4.321,10.443c0,4.046,1.396,7.543,4.266,10.441c2.844,2.897,6.367,4.32,10.389,4.32
		c4.1,0,7.57-1.423,10.469-4.32c2.871-2.898,4.318-6.45,4.318-10.441C1000,455.919,998.553,452.476,995.682,449.578z
		 M994.18,451.055c2.512,2.461,3.689,5.467,3.689,8.967c0,3.443-1.178,6.449-3.689,8.967c-2.463,2.514-5.412,3.772-8.967,3.772
		c-3.527,0-6.479-1.259-8.941-3.772c-2.458-2.518-3.689-5.523-3.689-8.967c0-3.5,1.231-6.506,3.689-8.967
		c2.463-2.515,5.496-3.827,8.941-3.827C988.684,447.228,991.717,448.54,994.18,451.055z"/>
</g>
<rect x="-6512.342" y="-9988.466" fill="none" width="13235.035" height="18729.244"/>
</svg>
